<svg xmlns="http://www.w3.org/2000/svg" version="1.1" xmlns:xlink="http://www.w3.org/1999/xlink" xmlns:svgjs="http://svgjs.com/svgjs" width="1440" height="800" preserveAspectRatio="none" viewBox="0 0 1440 800"><g mask="url(&quot;#SvgjsMask1018&quot;)" fill="none"><rect width="1440" height="800" x="0" y="0" fill="rgba(255, 255, 255, 1)"></rect><path d="M59 800L859 0L1273 0L473 800z" fill="url(#SvgjsLinearGradient1019)"></path><path d="M560.2 800L1360.2 0L1496.7 0L696.7 800z" fill="url(#SvgjsLinearGradient1019)"></path><path d="M1365 800L565 0L-104 0L696 800z" fill="url(#SvgjsLinearGradient1020)"></path><path d="M937.8 800L137.79999999999995 0L-94.70000000000005 0L705.3 800z" fill="url(#SvgjsLinearGradient1020)"></path><path d="M738.6619576548693 800L1440 98.6619576548693L1440 800z" fill="url(#SvgjsLinearGradient1019)"></path><path d="M0 800L701.3380423451307 800L 0 98.6619576548693z" fill="url(#SvgjsLinearGradient1020)"></path></g><defs><mask id="SvgjsMask1018"><rect width="1440" height="800" fill="#ffffff"></rect></mask><linearGradient x1="0%" y1="100%" x2="100%" y2="0%" id="SvgjsLinearGradient1019"><stop stop-color="rgba(15, 70, 185, 0.2)" offset="0"></stop><stop stop-opacity="0" stop-color="rgba(15, 70, 185, 0.2)" offset="0.66"></stop></linearGradient><linearGradient x1="100%" y1="100%" x2="0%" y2="0%" id="SvgjsLinearGradient1020"><stop stop-color="rgba(15, 70, 185, 0.2)" offset="0"></stop><stop stop-opacity="0" stop-color="rgba(15, 70, 185, 0.2)" offset="0.66"></stop></linearGradient></defs></svg>